<svg width="16" height="16" viewBox="0 0 16 16" fill="none" xmlns="http://www.w3.org/2000/svg">
<g clip-path="url(#clip0_145_7186)">
<path d="M1.97326 10.3787C1.77799 10.574 1.77799 10.8906 1.97326 11.0858C2.16852 11.2811 2.4851 11.2811 2.68036 11.0858L1.97326 10.3787ZM7.40288 14.6489L7.34454 14.1523L7.40288 14.6489ZM6.93812 14.663L6.96674 14.1638L6.93812 14.663ZM14.6624 6.93873L14.1632 6.96735L14.6624 6.93873ZM14.6483 7.40349L14.1517 7.34515L14.6483 7.40349ZM5.19426 3.8999L4.84071 3.54635L5.19426 3.8999ZM8.5972 1.3524L8.65554 1.84898L8.5972 1.3524ZM9.06196 1.33831L9.03334 1.83749L9.06196 1.33831ZM3.89929 5.19487L4.25284 5.54843H4.25284L3.89929 5.19487ZM1.35179 8.59781L1.84837 8.65615L1.35179 8.59781ZM1.3377 9.06257L1.83688 9.03395L1.3377 9.06257ZM2.68036 11.0858L11.0852 2.68102L10.378 1.97391L1.97326 10.3787L2.68036 11.0858ZM4.25284 5.54843L5.54782 4.25345L4.84071 3.54635L3.54574 4.84132L4.25284 5.54843ZM11.7472 10.4529L10.4523 11.7478L11.1594 12.455L12.4543 11.16L11.7472 10.4529ZM10.4523 11.7478C9.63276 12.5674 9.04734 13.1517 8.5478 13.5499C8.05549 13.9422 7.69755 14.1108 7.34454 14.1523L7.46122 15.1455C8.07752 15.0731 8.60983 14.7792 9.17107 14.3319C9.72506 13.8903 10.3565 13.2579 11.1594 12.455L10.4523 11.7478ZM3.32991 12.6708C4.08406 13.4249 4.68253 14.0247 5.21585 14.4374C5.7602 14.8587 6.28761 15.1265 6.9095 15.1622L6.96674 14.1638C6.62445 14.1442 6.28802 14.0027 5.82783 13.6466C5.35662 13.2819 4.80985 12.7365 4.03701 11.9637L3.32991 12.6708ZM7.34454 14.1523C7.21806 14.1672 7.09164 14.171 6.96674 14.1638L6.9095 15.1622C7.09303 15.1727 7.27763 15.1671 7.46122 15.1455L7.34454 14.1523ZM11.9631 4.03762C12.7359 4.81046 13.2813 5.35723 13.646 5.82844C14.002 6.28863 14.1436 6.62506 14.1632 6.96735L15.1616 6.91011C15.1259 6.28822 14.858 5.76081 14.4368 5.21646C14.0241 4.68314 13.4243 4.08467 12.6702 3.33052L11.9631 4.03762ZM12.4543 11.16C13.2573 10.3571 13.8897 9.72568 14.3313 9.17168C14.7786 8.61045 15.0725 8.07813 15.1449 7.46183L14.1517 7.34515C14.1102 7.69816 13.9416 8.0561 13.5492 8.54841C13.1511 9.04795 12.5667 9.63337 11.7472 10.4529L12.4543 11.16ZM14.1632 6.96735C14.1704 7.09225 14.1666 7.21867 14.1517 7.34515L15.1449 7.46183C15.1664 7.27824 15.1721 7.09364 15.1616 6.91011L14.1632 6.96735ZM5.54782 4.25345C6.36733 3.43394 6.95275 2.84958 7.45228 2.45145C7.94459 2.05908 8.30254 1.89045 8.65554 1.84898L8.53886 0.855811C7.92256 0.928215 7.39025 1.22213 6.82902 1.66944C6.27502 2.11098 5.64362 2.74344 4.84071 3.54635L5.54782 4.25345ZM12.6702 3.33052C11.916 2.57637 11.3176 1.97656 10.7842 1.56387C10.2399 1.14265 9.71247 0.87479 9.09058 0.839132L9.03334 1.83749C9.37564 1.85712 9.71207 1.99865 10.1723 2.35474C10.6435 2.71937 11.1902 3.26479 11.9631 4.03762L12.6702 3.33052ZM8.65554 1.84898C8.78203 1.83412 8.90844 1.83033 9.03334 1.83749L9.09058 0.839132C8.90706 0.828609 8.72245 0.834244 8.53886 0.855811L8.65554 1.84898ZM3.54574 4.84132C2.74283 5.64423 2.11037 6.27563 1.66883 6.82963C1.22152 7.39086 0.927604 7.92317 0.855201 8.53947L1.84837 8.65615C1.88984 8.30315 2.05847 7.9452 2.45084 7.45289C2.84897 6.95336 3.43333 6.36794 4.25284 5.54843L3.54574 4.84132ZM4.03701 11.9637C3.26418 11.1908 2.71876 10.6441 2.35413 10.1729C1.99804 9.71268 1.85651 9.37625 1.83688 9.03395L0.838522 9.09119C0.87418 9.71308 1.14204 10.2405 1.56326 10.7848C1.97595 11.3182 2.57576 11.9166 3.32991 12.6708L4.03701 11.9637ZM0.855201 8.53947C0.833633 8.72306 0.827999 8.90767 0.838522 9.09119L1.83688 9.03395C1.82972 8.90905 1.83351 8.78264 1.84837 8.65615L0.855201 8.53947Z" fill="#808080"/>
<path d="M8.69601 10.3795C8.50074 10.5747 8.50074 10.8913 8.69601 11.0866C8.89127 11.2818 9.20785 11.2818 9.40311 11.0866L8.69601 10.3795ZM10.0335 10.4562C10.2287 10.2609 10.2287 9.94436 10.0335 9.7491C9.83821 9.55384 9.52163 9.55384 9.32637 9.7491L10.0335 10.4562ZM10.5871 8.48838C10.3918 8.68364 10.3918 9.00022 10.5871 9.19549C10.7823 9.39075 11.0989 9.39075 11.2942 9.19549L10.5871 8.48838ZM12.765 7.72465C12.9603 7.52939 12.9603 7.2128 12.765 7.01754C12.5698 6.82228 12.2532 6.82228 12.0579 7.01754L12.765 7.72465ZM9.40311 11.0866L10.0335 10.4562L9.32637 9.7491L8.69601 10.3795L9.40311 11.0866ZM11.2942 9.19549L12.765 7.72465L12.0579 7.01754L10.5871 8.48838L11.2942 9.19549Z" fill="#808080"/>
<path d="M2.66675 14.668H13.3334" stroke="#808080" stroke-linecap="round"/>
</g>
<defs>
<clipPath id="clip0_145_7186">
<rect width="16" height="16" fill="white"/>
</clipPath>
</defs>
</svg>
